<svg width="65" height="343" viewBox="0 0 65 343" fill="none" xmlns="http://www.w3.org/2000/svg">
<path d="M64.6 343.5H63.8V88.8C63.8 40.2 24.3 0.7 -24.3 0.7C-72.9 0.7 -112.2 40.3 -112.2 88.8V343.5H-113V88.8C-113 39.8 -73.2 0 -24.2 0C24.8 0 64.6 39.8 64.6 88.8V343.5Z" fill="black"/>
<path d="M51.7 343.5H51V88.8C51 47.4 17.3 13.6 -24.2 13.6C-65.6 13.6 -99.4 47.3 -99.4 88.8V343.5H-100.2V88.8C-100.1 47 -66 12.9 -24.2 12.9C17.7 12.9 51.7 47 51.7 88.8V343.5Z" fill="black"/>
<path d="M38.8 343.5H38V88.8C38 54.5 10.1 26.5 -24.3 26.5C-58.7 26.5 -86.4 54.5 -86.4 88.8V343.5H-87.2V88.8C-87.2 54 -58.9 25.8 -24.2 25.8C10.6 25.8 38.8 54.1 38.8 88.8V343.5Z" fill="black"/>
<path d="M25.9 343.5H25.1V88.8C25.1 61.6 3 39.4 -24.3 39.4C-51.5 39.4 -73.7 61.5 -73.7 88.8V343.5H-74.5V88.8C-74.5 61.2 -52 38.7 -24.4 38.7C3.2 38.7 25.7 61.2 25.7 88.8V343.5H25.9Z" fill="black"/>
<path d="M13.1 343.5H12.3V88.8C12.3 68.7 -4.1 52.3 -24.2 52.3C-44.3 52.3 -60.7 68.7 -60.7 88.8V343.5H-61.5V88.8C-61.5 68.3 -44.8 51.6 -24.3 51.6C-3.8 51.6 12.9 68.3 12.9 88.8V343.5H13.1Z" fill="black"/>
</svg>
